<svg version="1" xmlns="http://www.w3.org/2000/svg" width="1072" height="1072" viewBox="0 0 804.000000 804.000000"><path d="M264 101.5c-9.7 2.5-10.7 3.6-39.3 41.3-12.2 16.2-28.9 38.2-37.1 49-32 42.3-110.7 146.4-113.4 150.1-.9 1.3-2.1 2.8-2.7 3.5-.5.6-5 6.5-10 13.1-4.9 6.6-9.5 12.7-10.2 13.5-9.2 11.4-45.5 60.8-47.3 64.5-1.8 3.8-2.4 6.7-2.4 12-.1 8.1 1.9 12.9 7.3 18.2 5.9 5.7 10.8 7.5 20.4 7.4 10.8-.2 17-4.4 28.2-19.2 4.1-5.5 8-10.5 8.5-11.2.9-1.1 33.9-44.9 38.5-51.1 1.1-1.5 5.3-7.1 9.4-12.4 4-5.3 16.6-22.1 27.9-37.2 11.4-15.1 20.9-27.7 21.3-28 .3-.3 10.2-13.3 22-29s21.9-29.2 22.6-30c.7-.8 4.6-6 8.8-11.5 10.2-13.7 11-14.7 18.9-24.2 3.8-4.6 7.2-8.3 7.5-8.3.3 0 .6 54.1.7 120.3 0 135.5-.5 126.8 7.6 134.7 9.7 9.5 28 9.9 37.8.8 2.8-2.6 15-18.3 39.5-50.8 9.3-12.4 22.7-30.2 29.8-39.5 7-9.4 13.7-18.1 14.7-19.5 1-1.4 10.6-14 21.2-28s24.6-32.5 31-41c6.5-8.5 18-23.7 25.6-33.7 7.6-10 14.7-19.3 15.7-20.8 1.1-1.5 5.5-7.2 9.8-12.8 4.4-5.6 8.1-10.8 8.4-11.5.3-.6.9-1.2 1.3-1.2.5 0 .8 54.8.8 121.8 0 84.6.3 123 1.1 125.7 1.6 5.8 4.5 10.1 9 13 7.8 5.2 20.1 6.5 27.8 2.9 4-2 11.4-8.7 16.3-14.9 1.7-2.2 4.7-5.8 6.5-8 5.1-6.1 16.9-20.5 29.5-36 6.2-7.7 12.1-14.9 13.1-16 1.6-1.8 11-13.3 20.9-25.5 7.5-9.2 41.3-50.6 43.2-52.8 1-1.3 5.1-6.3 9-11 3.8-4.8 7.9-9.8 9-11.1 1.1-1.3 7-8.5 13.1-16 35.1-43.1 51-62.2 57.5-68.9 4.7-4.8 5.2-5.1 5.3-3 .4 13.9 0 346.5-.5 350.1-2.7 19.4-9 35.9-18.9 49.4-24.9 33.7-68 49.6-108.3 39.9-32.7-7.9-60.7-32.3-73.4-64-4.1-10.1-5.8-18.7-6.3-31.1-.6-15.6-5.4-23.8-17.2-29.6-5.8-2.8-7.1-3.1-12.4-2.6-16.1 1.6-24.5 12.6-24.2 31.7.4 20 2.5 31.7 8.7 49.2 5 14 16.7 35 24.4 43.8 1.2 1.4 4 4.7 6.3 7.4 5.9 6.9 19.6 18.8 29.3 25.2 47.1 31.3 110.1 35.6 159.8 10.7 31-15.5 56.3-41.2 71.6-72.7 8-16.4 13.4-35.5 15.5-54.6.3-3 .6-102.7.6-221.5-.1-240.7.5-222.1-7.1-230.7-9.1-10.3-24.9-12-36.2-3.9-3 2.3-14.5 15.7-36.8 43.1-2.8 3.4-38.4 46.8-54.5 66.5-1.9 2.2-14.9 18.2-29.1 35.5-14.2 17.3-26.3 32-26.9 32.6-.5.6-2.3 2.8-4 4.9-1.6 2.1-3.4 4.3-4 4.9-.5.6-4.8 5.8-9.5 11.6s-9.2 11.4-10.2 12.5c-.9 1.1-6 7.4-11.4 14S563.3 343.7 563 344c-.3.3-2.1 2.5-4 5-1.9 2.4-4.2 5.2-5 6-.8.9-4.1 4.4-7.2 7.8-3.2 3.4-5.9 6.2-6 6.2-.2 0-.3-55-.4-122.3-.1-135.1.2-128.9-6.4-136.9-8.9-10.8-27.7-12.1-38.4-2.6-2.5 2.1-13.4 15.7-24.2 30.1-10.9 14.4-23.2 30.7-27.4 36.2-6.7 8.8-33.4 44-88.9 117.5-9 11.8-22.9 30.3-31 41-8 10.7-17.4 22.4-20.8 26l-6.1 6.5V244c0-91.8-.3-121.5-1.2-124.5-4.1-13.6-18.2-21.5-32-18z"/></svg>